<?xml version="1.0" encoding="utf-8"?>
<!-- Generator: Adobe Illustrator 27.9.0, SVG Export Plug-In . SVG Version: 6.00 Build 0)  -->
<svg version="1.1" id="Layer_1" xmlns="http://www.w3.org/2000/svg" xmlns:xlink="http://www.w3.org/1999/xlink" x="0px" y="0px"
	 viewBox="0 0 226.7 227.8" style="enable-background:new 0 0 226.7 227.8;" xml:space="preserve">
<style type="text/css">
	.st0{fill:#f3f3f3;}
</style>
<path class="st0" d="M206.4,44.5C167.2,105,128,165.3,88.9,225.7c-1,1.6-2.1,2.1-3.9,2.1c-27.3-0.1-54.7,0-82,0
	c-3.2,0-2.6,0.2-2.9-2.7c-0.4-4.4,1-7.9,3.4-11.6C48.8,143.2,94,72.8,139.1,2.4c1.2-1.9,2.4-2.4,4.6-2.4c26.6,0.1,53.1,0.1,79.7,0.1
	c0.3,0,0.5,0,0.8,0c2.6,0,2.5-0.1,2.5,2.3c0,3-0.1,6.1,0,9.1c0,1.5-0.3,2.7-1.1,3.9C219,24.9,212.7,34.6,206.4,44.5z"/>
<path class="st0" d="M19.7,115.6c-6.4,9.9-12.8,19.6-19.1,29.3c-0.9-0.5-0.5-1.2-0.5-1.7c0-46.9,0-93.9,0-140.8c0-0.4,0-0.9,0-1.3
	C0.1,0.4,0.4,0,1.2,0c0.5,0,1,0,1.6,0c29.9,0,59.9,0,89.8,0c0.7,0,1.4,0,2.1,0c0.3,1-0.4,1.6-0.8,2.2
	C69.1,39.9,44.4,77.7,19.7,115.6z"/>
<path class="st0" d="M142.1,213.5c28-43.2,55.9-86.2,83.8-129.3c0.2,0.1,0.4,0.1,0.5,0.2c0,0.8,0,1.7,0,2.5c0,45.9,0,91.8,0,137.7
	c0,3.4,0.5,3.1-3,3.1c-29.2,0-58.3,0-87.5,0c-0.8,0-1.7,0-3.1,0C136.1,222.8,139.1,218.2,142.1,213.5z"/>
</svg>
